<svg width="36" height="36" viewBox="0 0 36 36" fill="none" xmlns="http://www.w3.org/2000/svg">
<path d="M4.6095 10.0547L4.52656 9.99886L4.52654 9.99889L4.5265 9.99895L4.52642 9.99907L4.52621 9.99938L4.52566 10.0002L4.52406 10.0027L4.51911 10.0106C4.51522 10.017 4.50997 10.0261 4.50461 10.0367C4.4984 10.049 4.48645 10.0738 4.48102 10.103L4.47661 10.1074L4.46503 10.1189L4.45768 10.1334C4.43578 10.1767 4.4258 10.2184 4.41915 10.2557C4.41563 10.2755 4.41348 10.2901 4.41147 10.3038C4.40892 10.3212 4.4066 10.337 4.40198 10.3598L4.4 10.3696V10.3797V30.8966V30.912C4.4 31.2932 4.71174 31.6 5.09444 31.6H30.9056C31.2883 31.6 31.6 31.2932 31.6 30.912V10.3797L31.6 10.3729C31.6001 10.3186 31.6003 10.2221 31.546 10.1372C31.5393 10.1177 31.5293 10.1032 31.523 10.0949C31.5207 10.0918 31.5183 10.0889 31.5159 10.086C31.5121 10.0718 31.5068 10.0593 31.5013 10.0483C31.4967 10.0392 31.4915 10.0304 31.4884 10.0251C31.4848 10.019 31.4822 10.0145 31.4797 10.0096L31.4805 10.0092L31.473 9.99817L27.8438 4.70648L27.8438 4.70647L27.8429 4.70527C27.7171 4.52744 27.5005 4.4 27.2764 4.4H8.72364C8.48725 4.4 8.28364 4.50926 8.15543 4.70765L4.52703 9.99817L4.52703 9.99817L4.52658 9.99884L4.6095 10.0547ZM20.947 18.9052V11.0676H30.1955V30.2241H5.78888V11.0676H15.0373V18.8897C15.0373 19.1428 15.1665 19.3611 15.3846 19.4869C15.6065 19.615 15.8784 19.5951 16.0765 19.4883L16.0765 19.4884L16.081 19.4857L17.9844 18.326L19.8862 19.4848C19.9968 19.5573 20.125 19.5931 20.2526 19.5931C20.3658 19.5931 20.4905 19.5567 20.5942 19.5054L20.5942 19.5056L20.5998 19.5024C20.8178 19.3766 20.947 19.1583 20.947 18.9052ZM19.5738 5.77593V9.69169H16.5919L17.47 5.77593H19.5738ZM16.4262 11.0676H19.5738V17.6605L18.3661 16.9328C18.2556 16.8605 18.1275 16.8246 18 16.8246C17.8725 16.8246 17.7444 16.8605 17.6339 16.9328L16.4262 17.6605V11.0676ZM26.8953 5.77593L29.5891 9.69169H20.9627V5.77593H26.8953ZM6.41032 9.69169L9.08925 5.77593H16.0448L15.1668 9.69169H6.41032Z" fill="#FF7035" stroke="#FF7035" stroke-width="0.2"/>
</svg>
