<svg width="36" height="36" viewBox="0 0 36 36" fill="none" xmlns="http://www.w3.org/2000/svg">
<path d="M17.82 17.1161C19.9654 17.1161 21.8229 16.3467 23.341 14.8285C24.8586 13.3107 25.6283 11.4534 25.6283 9.30781C25.6283 7.16294 24.8589 5.30547 23.3408 3.78709C21.8226 2.26945 19.9651 1.5 17.82 1.5C15.6744 1.5 13.8172 2.26945 12.2993 3.78734C10.7814 5.30522 10.0117 7.16269 10.0117 9.30781C10.0117 11.4534 10.7814 13.3109 12.2993 14.8288C13.8177 16.3464 15.6752 17.1161 17.82 17.1161ZM13.6428 5.1306C14.8075 3.96591 16.1738 3.39977 17.82 3.39977C19.466 3.39977 20.8325 3.96591 21.9975 5.1306C23.1622 6.29554 23.7286 7.66206 23.7286 9.30781C23.7286 10.9541 23.1622 12.3203 21.9975 13.4853C20.8325 14.6502 19.466 15.2164 17.82 15.2164C16.1743 15.2164 14.808 14.65 13.6428 13.4853C12.4779 12.3206 11.9115 10.9541 11.9115 9.30781C11.9115 7.66206 12.4779 6.29554 13.6428 5.1306Z" fill="#FF7035"/>
<path d="M31.4813 26.429C31.4376 25.7973 31.349 25.1082 31.2187 24.3806C31.0871 23.6475 30.9177 22.9544 30.7148 22.321C30.5051 21.6663 30.2204 21.0198 29.868 20.4002C29.5027 19.7572 29.0733 19.1972 28.5915 18.7364C28.0877 18.2544 27.4708 17.8668 26.7575 17.5841C26.0467 17.3029 25.2589 17.1604 24.4163 17.1604C24.0853 17.1604 23.7653 17.2962 23.1472 17.6986C22.7668 17.9467 22.3218 18.2336 21.8252 18.5509C21.4005 18.8215 20.8252 19.075 20.1146 19.3045C19.4214 19.5289 18.7175 19.6426 18.0224 19.6426C17.3279 19.6426 16.624 19.5289 15.9303 19.3045C15.2204 19.0753 14.6449 18.8217 14.2209 18.5512C13.729 18.2368 13.2838 17.9499 12.8977 17.6984C12.2801 17.2959 11.9601 17.1602 11.6291 17.1602C10.7862 17.1602 9.99871 17.3029 9.28812 17.5843C8.57531 17.8665 7.95821 18.2541 7.4539 18.7367C6.9721 19.1977 6.54272 19.7574 6.17766 20.4002C5.82571 21.0198 5.54078 21.6661 5.33104 22.3213C5.12847 22.9547 4.95905 23.6475 4.82747 24.3806C4.69688 25.1072 4.60858 25.7965 4.5648 26.4297C4.52177 27.0488 4.5 27.6931 4.5 28.3441C4.5 30.0363 5.03795 31.4063 6.09876 32.4167C7.14647 33.4137 8.53252 33.9192 10.2186 33.9192H25.8283C27.5139 33.9192 28.8999 33.4137 29.9479 32.4167C31.0089 31.407 31.5469 30.0366 31.5469 28.3438C31.5466 27.6906 31.5246 27.0463 31.4813 26.429ZM28.638 31.0402C27.9457 31.6991 27.0266 32.0194 25.828 32.0194H10.2186C9.01977 32.0194 8.10068 31.6991 7.40864 31.0405C6.72971 30.3942 6.39977 29.512 6.39977 28.3441C6.39977 27.7366 6.4198 27.1368 6.45987 26.561C6.49895 25.9961 6.57884 25.3756 6.69731 24.7162C6.8143 24.065 6.96319 23.4538 7.14028 22.9005C7.3102 22.37 7.54195 21.8446 7.82935 21.3386C8.10364 20.8563 8.41924 20.4425 8.76749 20.1091C9.09323 19.7972 9.5038 19.542 9.98758 19.3505C10.435 19.1734 10.9378 19.0765 11.4837 19.0619C11.5502 19.0973 11.6687 19.1648 11.8606 19.2899C12.2512 19.5444 12.7013 19.8348 13.199 20.1526C13.7599 20.5103 14.4826 20.8333 15.3461 21.112C16.2288 21.3975 17.1291 21.5424 18.0227 21.5424C18.9163 21.5424 19.8169 21.3975 20.6991 21.1123C21.5633 20.8331 22.2857 20.5103 22.8474 20.1521C23.3567 19.8267 23.7942 19.5447 24.1848 19.2899C24.3767 19.165 24.4952 19.0973 24.5617 19.0619C25.1078 19.0765 25.6106 19.1734 26.0583 19.3505C26.5418 19.542 26.9524 19.7975 27.2782 20.1091C27.6264 20.4423 27.942 20.8561 28.2163 21.3389C28.5039 21.8446 28.7359 22.3702 28.9056 22.9003C29.0829 23.4543 29.2321 24.0652 29.3488 24.7159C29.4671 25.3766 29.5472 25.9974 29.5863 26.5613V26.5618C29.6266 27.1354 29.6469 27.7349 29.6471 28.3441C29.6469 29.5122 29.3169 30.3942 28.638 31.0402Z" fill="#FF7035"/>
</svg>
