<svg width="36" height="36" viewBox="0 0 36 36" fill="none" xmlns="http://www.w3.org/2000/svg">
<path d="M5.1 8.1H5.10986L5.11947 8.01069C5.2958 6.37126 6.64734 5.1 8.28378 5.1H25.0676C26.8234 5.1 28.2514 6.56367 28.2514 8.375V9.63045V9.70908L28.3278 9.72763C30.3742 10.2245 31.9 12.1153 31.9 14.375V27.125C31.9 29.7648 29.8186 31.9 27.2568 31.9H9.74324C7.18142 31.9 5.1 29.7648 5.1 27.125V8.1ZM7.18919 11.65H7.08919V11.75V27.125C7.08919 28.6274 8.27488 29.85 9.74324 29.85H27.2568C28.7251 29.85 29.9108 28.6274 29.9108 27.125V14.375C29.9108 12.8726 28.7251 11.65 27.2568 11.65H7.18919ZM26.1622 9.6H26.2622V9.5V8.375C26.2622 7.70105 25.7299 7.15 25.0676 7.15H8.28378C7.62146 7.15 7.08919 7.70105 7.08919 8.375C7.08919 9.04895 7.62146 9.6 8.28378 9.6H26.1622ZM23.3432 21.125C23.3432 20.5563 23.7911 20.1 24.3378 20.1H27.2568C27.8035 20.1 28.2514 20.5563 28.2514 21.125C28.2514 21.6937 27.8035 22.15 27.2568 22.15H24.3378C23.7911 22.15 23.3432 21.6937 23.3432 21.125Z" fill="#5B5B5B" stroke="#5B5B5B" stroke-width="0.2"/>
</svg>
